# xmcd
#
# Track frame offsets:
#	150
#	17027
#	64122
#	102505
#	126470
#	158542
#	185095
#	216697
#	238720
#
# Disc length: 3545 seconds
#
# Revision: 2
# Processed by: cddbd v1.5.1PL0 Copyright (c) Steve Scherf et al.
# Submitted via: audiograbber 1.83.01
#
DISCID=860dd709
DTITLE=Wishbone Ash - Classic Ash
DYEAR=1992
DGENRE=Rock
TTITLE0=Blind Eye
TTITLE1=Phoenix
TTITLE2=The Pilgrim
TTITLE3=Blowin' Free
TTITLE4=The King Will Come
TTITLE5=Rock And Roll Widow
TTITLE6=Persephone
TTITLE7=Outward Bound
TTITLE8=Throw Down The Sword
EXTD=
EXTT0=
EXTT1=
EXTT2=
EXTT3=
EXTT4=
EXTT5=
EXTT6=
EXTT7=
EXTT8=
PLAYORDER=
